<svg id="Layer_1" data-name="Layer 1" xmlns="http://www.w3.org/2000/svg" viewBox="0 0 99.63 99.63"><defs><style>.cls-1{fill:#fff;}</style></defs><title>behance-icon</title><g id="Group_2" data-name="Group 2"><path id="Path_12" data-name="Path 12" class="cls-1" d="M42.48,39.69c0-5.59-3.8-5.59-3.8-5.59H23.05v12H37.7C40.24,46.08,42.48,45.27,42.48,39.69Z" transform="translate(-0.19 -0.07)"/><path id="Path_13" data-name="Path 13" class="cls-1" d="M38.58,50.54H23V64.89H37.86c2.24-.06,6.38-.76,6.38-7C44.24,50.46,38.58,50.54,38.58,50.54Z" transform="translate(-0.19 -0.07)"/><path id="Path_14" data-name="Path 14" class="cls-1" d="M70.19,44.29c-8.29,0-9.45,8.27-9.45,8.27H78.38S78.49,44.29,70.19,44.29Z" transform="translate(-0.19 -0.07)"/><path id="Path_15" data-name="Path 15" class="cls-1" d="M50,.07A49.81,49.81,0,1,0,99.81,49.88h0A49.81,49.81,0,0,0,50,.07Zm10.86,29.4H79.51V35H60.86ZM51.44,58.66C51.44,72.45,37.08,72,37.08,72H13.57V26.81H37.08c7.15,0,12.79,3.94,12.79,12s-6.9,8.6-6.9,8.6C52.06,47.44,51.44,58.66,51.44,58.66Zm19.41,7.12c7.5,0,7.24-4.86,7.24-4.86h8c0,12.9-15.46,12-15.46,12C52,72.94,53.22,55.67,53.22,55.67s0-17.37,17.36-17.37c18.29,0,15.73,19.62,15.73,19.62H62.9a7.35,7.35,0,0,0,6.79,7.87A6.43,6.43,0,0,0,70.85,65.78Z" transform="translate(-0.19 -0.07)"/></g></svg>