<svg id="Layer_1" data-name="Layer 1" xmlns="http://www.w3.org/2000/svg" viewBox="0 0 99.76 99.76"><defs><style>.cls-1{fill:#fff;}</style></defs><title>instagram-icon</title><path id="Path_9" data-name="Path 9" class="cls-1" d="M59.55,49.88A9.55,9.55,0,1,1,50,40.33h0A9.55,9.55,0,0,1,59.55,49.88Z" transform="translate(-0.12 0)"/><path id="Path_10" data-name="Path 10" class="cls-1" d="M72.33,33a9.5,9.5,0,0,0-5.44-5.44,16.07,16.07,0,0,0-5.32-1c-3-.13-3.92-.16-11.57-.16s-8.55,0-11.57.16a15.82,15.82,0,0,0-5.32,1A9.51,9.51,0,0,0,27.67,33a15.9,15.9,0,0,0-1,5.32c-.14,3-.17,3.93-.17,11.58s0,8.55.17,11.57a15.81,15.81,0,0,0,1,5.32,9.48,9.48,0,0,0,5.44,5.43,15.82,15.82,0,0,0,5.32,1c3,.14,3.92.17,11.57.17s8.55,0,11.57-.17a15.82,15.82,0,0,0,5.32-1,9.45,9.45,0,0,0,5.44-5.43,15.85,15.85,0,0,0,1-5.32c.14-3,.17-3.93.17-11.57s0-8.56-.17-11.58A15.8,15.8,0,0,0,72.33,33ZM50,64.58a14.71,14.71,0,1,1,14.71-14.7A14.71,14.71,0,0,1,50,64.58ZM65.29,38a3.44,3.44,0,1,1,3.44-3.44A3.44,3.44,0,0,1,65.29,38Z" transform="translate(-0.12 0)"/><path id="Path_11" data-name="Path 11" class="cls-1" d="M50,0A49.88,49.88,0,1,0,99.88,49.88h0A49.88,49.88,0,0,0,50,0ZM78.47,61.68a21.22,21.22,0,0,1-1.33,7A14.66,14.66,0,0,1,68.76,77a20.61,20.61,0,0,1-7,1.33c-3.05.14-4,.18-11.81.18s-8.75,0-11.81-.18A20.71,20.71,0,0,1,31.24,77a14.65,14.65,0,0,1-8.37-8.37,21,21,0,0,1-1.34-7c-.14-3-.17-4-.17-11.8s0-8.76.17-11.81a20.87,20.87,0,0,1,1.34-6.95,14.64,14.64,0,0,1,8.37-8.38,21.22,21.22,0,0,1,7-1.33c3-.14,4-.18,11.8-.18s8.76,0,11.81.18a20.86,20.86,0,0,1,7,1.33,14.66,14.66,0,0,1,8.38,8.37,21,21,0,0,1,1.33,7c.14,3,.18,4,.18,11.8S78.61,58.63,78.47,61.68Z" transform="translate(-0.12 0)"/></svg>