<svg xmlns="http://www.w3.org/2000/svg" viewBox="0 0 357.4 115.33"><defs><style>.cls-1{font-size:82.41px;fill:#fff;font-family:TropicalSummerSignature, Tropical Summer Signature;}.cls-2{letter-spacing:-0.14em;}.cls-3,.cls-4,.cls-5{fill:none;stroke:#fff;stroke-linecap:round;stroke-miterlimit:10;}.cls-3{stroke-width:1.51px;}.cls-4{stroke-width:1.27px;}.cls-5{stroke-width:1.21px;}</style></defs><title>logo-complete-whiteAsset 1</title><g id="Layer_2" data-name="Layer 2"><g id="Layer_1-2" data-name="Layer 1"><text class="cls-1" transform="translate(0 85.08)">Cristian<tspan class="cls-2" x="204.29" y="0"> </tspan><tspan x="213.43" y="0">Tejeda</tspan></text><path class="cls-3" d="M145.57,54.62a27.73,27.73,0,1,1,55.46,0"/><path class="cls-3" d="M153.76,54.06a20.26,20.26,0,1,1,40.51,0"/><path class="cls-4" d="M202.62,18.38l2,0c1.82,0,3.64.09,5.46.16s3.48.13,5.21.23,3.27.19,4.91.3,3,.24,4.56.39,2.8.3,4.19.49,2.51.35,3.76.57c1.1.2,2.2.42,3.3.67.53.13,1.06.28,1.59.43l.79.24.41.12h0"/><path class="cls-4" d="M130.84,20.38l3.56-.2,5.26-.28,5.51-.28h.27"/><path class="cls-4" d="M103.31,45.21c0-.62.09-1.25.13-1.87.22-3.29.42-6.6.6-9.89s.39-6.68.49-10l0-1.08a.27.27,0,0,1,0-.16.31.31,0,0,1,.26-.12c1-.12,2.1-.14,3.15-.22l2.36-.16,1.17-.08"/><path class="cls-4" d="M145.37,19.63l4.49-6,7.47-10,1.51-2c.25-.34.46-.79.86-.89a3.14,3.14,0,0,1,.75,0h28.68a.44.44,0,0,1,.2,0l.1.1c2.48,3.31,5,6.6,7.46,9.9l5.57,7.4.16.22"/><path class="cls-4" d="M192.42,16.49l0,0h0L187.54,10l-2.67-3.54a.4.4,0,0,0-.13-.13.38.38,0,0,0-.21,0H168.48c-1.42,0-2.83,0-4.24,0a.68.68,0,0,0-.42.06.84.84,0,0,0-.23.23l-7,9.33L155,18.05"/><path class="cls-5" d="M111.54,21.61l-.11-2.08a3,3,0,0,1,2.86-3.19l13.25-.72a3.06,3.06,0,0,1,3.2,2.87l.1,1.89"/></g></g></svg>