<?xml version="1.0" encoding="utf-8"?>
<!-- Generator: Adobe Illustrator 23.0.1, SVG Export Plug-In . SVG Version: 6.00 Build 0)  -->
<svg version="1.1" id="Layer_1" xmlns="http://www.w3.org/2000/svg" xmlns:xlink="http://www.w3.org/1999/xlink" x="0px" y="0px"
	 viewBox="0 0 100 100" style="enable-background:new 0 0 100 100;" xml:space="preserve">
<style type="text/css">
	.st0{fill:#FFFFFF;}
</style>
<path id="Exclusion_1" class="st0" d="M50,100C22.4,100,0,77.6,0,50C0,29.9,12,11.8,30.5,4C56-6.8,85.3,5.1,96,30.6
	s-1.2,54.8-26.6,65.5C63.3,98.7,56.7,100,50,100z M49.7,19.7c-16.5,0-29.8,13.4-29.8,29.9c0,5.2,1.4,10.3,4,14.9l-4.2,15.4l15.8-4.1
	c4.4,2.4,9.3,3.6,14.2,3.6h0c16.5,0,29.8-13.4,29.8-29.8S66.2,19.7,49.7,19.7L49.7,19.7L49.7,19.7z M49.7,74.3L49.7,74.3
	c-4.4,0-8.8-1.2-12.6-3.5l-0.9-0.5l-9.4,2.5l2.5-9.1l-0.6-0.9c-7.3-11.6-3.8-26.9,7.8-34.2s26.9-3.8,34.2,7.8s3.8,26.9-7.8,34.2
	C58.9,73,54.4,74.3,49.7,74.3L49.7,74.3z M39.1,35.7c-0.8,0-1.5,0.4-2,0.9L37,36.8c-1.6,1.6-2.5,3.8-2.5,6.1c0.2,2.8,1.3,5.5,3,7.7
	c0,0,0.1,0.1,0.1,0.2c3.1,4.7,7.5,8.6,12.6,11.1c1.4,0.6,2.8,1.1,4.2,1.6c0.9,0.3,1.9,0.4,2.9,0.4c0.6,0,1.2-0.1,1.8-0.1
	c2.1-0.4,3.9-1.7,5-3.5c0.5-1.1,0.6-2.3,0.4-3.5c-0.3-0.3-0.6-0.5-1-0.7l-0.4-0.2c-0.7-0.4-4.4-2.2-5.1-2.4
	c-0.3-0.1-0.5-0.2-0.8-0.2c-0.4,0-0.7,0.2-0.9,0.6c-0.5,0.7-1.9,2.4-2.4,2.9C54,56.9,53.7,57,53.4,57c-0.3,0-0.6-0.1-0.8-0.2
	c-0.1-0.1-0.3-0.1-0.5-0.2c-2-0.8-3.9-2-5.5-3.5c-1.6-1.5-3-3.2-4.1-5.2c-0.3-0.5-0.2-1.1,0.2-1.4l0.1-0.1c0.7-0.8,1.3-1.7,1.9-2.5
	c0.2-0.4,0.2-0.9-0.1-1.3c-0.1-0.3-0.9-2-1.5-3.6c-0.3-0.8-0.6-1.5-0.8-1.9c-0.5-1.3-1.1-1.3-1.5-1.3h-0.2
	C40.1,35.7,39.6,35.7,39.1,35.7z"/>
</svg>
